#!OML:ASF X:\für Bonn\!DataBase\2005_08_11_Bastian_Final\c3d\Bastian.ASF
:FULLY-SPECIFIED
:DEGREES
32
root -22.6684 17.6277 -0.392866 65.814 -83.675 -73.9634
lowerback 5.47176 -1.47922 2.4459
upperback 5.29255 -2.09436 2.01709
thorax 2.38299 -1.08495 0.772658
lowerneck -8.75367 -3.98962 -3.7683
upperneck -9.59956 -5.15101 4.84568
head -1.31871 -2.65399 2.09106
rclavicle 1.28278e-014 -6.16232e-015
rhumerus -48.8426 0.339186 -75.4935
rradius 78.0542
rwrist -0.605794
rhand 0.638662 -4.13889
rfingers 7.12502
rthumb 26.202 -32.3503
lclavicle 1.28278e-014 -6.16232e-015
lhumerus -24.1648 -9.84154 89.9664
lradius 24.6004
lwrist 15.8939
lhand -11.388 -8.55653
lfingers 7.12502
lthumb 14.6466 20.9062
rfemur 0.677146 3.71069 26.4119
rtibia 27.4285
rfoot -11.0457 -16.6596
rtoes -8.20394
lfemur 2.53742 4.63558 -12.4493
ltibia 22.6836
lfoot -10.0627 -6.48214
ltoes -14.3134
33
root -22.6637 17.628 -0.391364 66.0133 -83.6571 -74.1603
lowerback 5.50139 -1.4331 2.43456
upperback 5.2895 -2.03076 1.98662
thorax 2.36266 -1.05274 0.746396
lowerneck -8.74564 -4.03061 -3.75944
upperneck -9.57491 -5.20455 4.86748
head -1.30932 -2.68059 2.09494
rclavicle -1.31695e-015 -7.95139e-015
rhumerus -48.0266 0.829633 -74.6457
rradius 80.5285
rwrist -0.505257
rhand 0.729998 -4.11068
rfingers 7.12502
rthumb 26.2894 -32.3091
lclavicle -1.31695e-015 -7.95139e-015
lhumerus -24.1892 -10.0643 89.9688
lradius 24.9713
lwrist 16.1338
lhand -11.4434 -8.71779
lfingers 7.12502
lthumb 14.5933 20.7488
rfemur 0.659516 3.71566 26.425
rtibia 27.4257
rfoot -11.0481 -16.633
rtoes -8.15755
lfemur 2.52116 4.62944 -12.4295
ltibia 22.686
lfoot -10.0322 -6.47346
ltoes -14.0888
34
root -22.6583 17.6278 -0.389577 66.0369 -83.6778 -74.1971
lowerback 5.5578 -1.37837 2.38727
upperback 5.28615 -1.95539 1.94034
thorax 2.32764 -1.01549 0.724222
lowerneck -8.74778 -4.08072 -3.76593
upperneck -9.53026 -5.26722 4.91723
head -1.29023 -2.7111 2.10969
rclavicle -4.33599e-015 -4.96962e-015
rhumerus -47.0859 1.31615 -73.7294
rradius 82.9382
rwrist -0.495817
rhand 0.747197 -3.92044
rfingers 7.12502
rthumb 26.3059 -32.1164
lclavicle -4.33599e-015 -4.96962e-015
lhumerus -24.2018 -10.2958 89.9774
lradius 25.2734
lwrist 16.3283
lhand -11.4893 -8.90221
lfingers 7.12502
lthumb 14.5491 20.5676
rfemur 0.652968 3.74283 26.4017
rtibia 27.4244
rfoot -11.025 -16.643
rtoes -8.15664
lfemur 2.51779 4.6003 -12.4671
ltibia 22.6848
lfoot -10.0237 -6.41217
ltoes -14.1244
35
root -22.6536 17.6287 -0.387987 66.3805 -83.662 -74.5374
lowerback 5.5794 -1.31618 2.37939
upperback 5.28469 -1.87083 1.91382
thorax 2.31364 -0.972726 0.698964
lowerneck -8.73751 -4.13981 -3.78894
upperneck -9.50998 -5.34079 4.97648
head -1.27987 -2.74713 2.13106
rclavicle 8.56016e-015 -6.75868e-015
rhumerus -45.9385 1.80111 -72.7317
rradius 85.2178
rwrist -0.537397
rhand 0.658503 -3.70648
rfingers 7.12502
rthumb 26.221 -31.9151
lclavicle 8.56016e-015 -6.75868e-015
lhumerus -24.1955 -10.4692 90.0008
lradius 25.4959
lwrist 16.4331
lhand -11.5993 -9.09723
lfingers 7.12502
lthumb 14.4431 20.3802
rfemur 0.630679 3.72141 26.4134
rtibia 27.421
rfoot -11.0075 -16.5879
rtoes -8.1419
lfemur 2.50421 4.58374 -12.4529
ltibia 22.6888
lfoot -10.0232 -6.3644
ltoes -14.1986
36
root -22.6479 17.6294 -0.386663 66.5603 -83.6627 -74.7099
lowerback 5.61946 -1.26439 2.36284
upperback 5.27058 -1.79802 1.86037
thorax 2.27553 -0.935454 0.651872
lowerneck -8.72436 -4.18657 -3.76616
upperneck -9.46667 -5.4012 5.03237
head -1.26429 -2.77758 2.14313
rclavicle 1.91703e-014 7.95139e-016
rhumerus -44.6358 2.30975 -71.7132
rradius 87.377
rwrist -0.680769
rhand 0.482695 -3.57814
rfingers 7.12502
rthumb 26.0526 -31.8116
lclavicle 1.91703e-014 7.95139e-016
lhumerus -24.2125 -10.6977 89.9902
lradius 25.6809
lwrist 16.5607
lhand -11.6809 -9.27695
lfingers 7.12502
lthumb 14.3644 20.2061
rfemur 0.598377 3.76567 26.4203
rtibia 27.423
rfoot -10.9818 -16.6089
rtoes -8.13854
lfemur 2.47702 4.61406 -12.4497
ltibia 22.6833
lfoot -9.9851 -6.36795
ltoes -14.1477
37
root -22.6422 17.6295 -0.38492 66.837 -83.6458 -74.9929
lowerback 5.67342 -1.20761 2.3771
upperback 5.26022 -1.71771 1.81268
thorax 2.23319 -0.893845 0.593422
lowerneck -8.70579 -4.25061 -3.77413
upperneck -9.43199 -5.48181 5.10542
head -1.2502 -2.81748 2.16604
rclavicle -6.4605e-015 -1.55052e-014
rhumerus -43.1245 2.84462 -70.607
rradius 89.3418
rwrist -0.891634
rhand 0.370715 -3.4722
rfingers 7.12502
rthumb 25.9454 -31.7215
lclavicle -6.4605e-015 -1.55052e-014
lhumerus -24.2229 -10.957 90.0098
lradius 25.796
lwrist 16.6864
lhand -11.7922 -9.40356
lfingers 7.12502
lthumb 14.2572 20.087
rfemur 0.586136 3.74846 26.4336
rtibia 27.4149
rfoot -10.9565 -16.5658
rtoes -8.21682
lfemur 2.46818 4.59433 -12.4359
ltibia 22.6884
lfoot -9.98192 -6.32457
ltoes -14.2255
38
root -22.6369 17.6309 -0.38346 67.2642 -83.6559 -75.4077
lowerback 5.68417 -1.14553 2.36277
upperback 5.26278 -1.6334 1.7578
thorax 2.22896 -0.850636 0.542055
lowerneck -8.71988 -4.29702 -3.74506
upperneck -9.39676 -5.54263 5.15726
head -1.23295 -2.84848 2.17511
rclavicle -4.07509e-015 6.16232e-015
rhumerus -41.3403 3.31977 -69.4456
rradius 91.0816
rwrist -1.1319
rhand 0.425499 -3.22621
rfingers 7.12502
rthumb 25.9979 -31.4678
lclavicle -4.07509e-015 6.16232e-015
lhumerus -24.2321 -11.2546 90.0229
lradius 25.9088
lwrist 16.8224
lhand -11.9005 -9.38645
lfingers 7.12502
lthumb 14.1529 20.1115
rfemur 0.548436 3.77303 26.4245
rtibia 27.4122
rfoot -10.9464 -16.5235
rtoes -8.1058
lfemur 2.44454 4.58545 -12.4482
ltibia 22.686
lfoot -9.97464 -6.26212
ltoes -14.2388
39
root -22.631 17.6314 -0.382143 67.5671 -83.6406 -75.7117
lowerback 5.73701 -1.09158 2.38699
upperback 5.24405 -1.55553 1.69225
thorax 2.17812 -0.809487 0.45962
lowerneck -8.68653 -4.35553 -3.71168
upperneck -9.35705 -5.61938 5.22589
head -1.22095 -2.88764 2.18965
rclavicle 3.95085e-015 5.96354e-016
rhumerus -39.4008 3.78442 -68.2372
rradius 92.6314
rwrist -1.30651
rhand 0.584175 -2.6178
rfingers 7.12502
rthumb 26.1498 -30.837
lclavicle 3.95085e-015 5.96354e-016
lhumerus -24.2609 -11.5618 90.024
lradius 25.9328
lwrist 16.9383
lhand -11.9465 -9.32086
lfingers 7.12502
lthumb 14.1085 20.1802
rfemur 0.529006 3.77222 26.4422
rtibia 27.4043
rfoot -10.9187 -16.4941
rtoes -8.10181
lfemur 2.42634 4.53596 -12.4419
ltibia 22.6882
lfoot -9.95994 -6.16492
ltoes -14.2468
